HIERARCHY
ROOT Model_Hips
{
	OFFSET 0.000000 96.915077 0.000000
	CHANNELS 6 Xposition Yposition Zposition Xrotation Yrotation Zrotation
	JOINT Model_Spine
	{
		OFFSET 0.000000 11.137703 -1.289900
		CHANNELS 3 Xrotation Yrotation Zrotation
		JOINT Model_Spine1
		{
			OFFSET 0.000000 12.993942 -1.504922
			CHANNELS 3 Xrotation Yrotation Zrotation
			JOINT Model_Spine2
			{
				OFFSET 0.000000 14.850220 -1.719911
				CHANNELS 3 Xrotation Yrotation Zrotation
				JOINT Model_Neck
				{
					OFFSET 0.000000 16.706543 -1.934903
					CHANNELS 3 Xrotation Yrotation Zrotation
					JOINT Model_Head
					{
						OFFSET 0.000000 10.471298 2.002100
						CHANNELS 3 Xrotation Yrotation Zrotation
						JOINT Model_HeadTop_End
						{
							OFFSET 0.000000 20.842606 3.985100
							CHANNELS 3 Xrotation Yrotation Zrotation
							End Site
							{
								OFFSET 0.000000 21.220154 0.000000
							}
						}
					}
				}
				JOINT Model_LeftShoulder
				{
					OFFSET 7.008500 14.768600 -1.919946
					CHANNELS 3 Xrotation Yrotation Zrotation
					JOINT Model_LeftArm
					{
						OFFSET 14.126271 -3.718048 0.029937
						CHANNELS 3 Xrotation Yrotation Zrotation
						JOINT Model_LeftForeArm
						{
							OFFSET 28.282801 0.000000 0.000000
							CHANNELS 3 Xrotation Yrotation Zrotation
							JOINT Model_LeftHand
							{
								OFFSET 26.204689 0.000000 0.000000
								CHANNELS 3 Xrotation Yrotation Zrotation
								End Site
								{
									OFFSET 26.204704 0.000000 0.000000
								}
							}
						}
					}
				}
				JOINT Model_RightShoulder
				{
					OFFSET -7.008500 14.768555 -1.949840
					CHANNELS 3 Xrotation Yrotation Zrotation
					JOINT Model_RightArm
					{
						OFFSET -14.126281 -3.718018 -0.029932
						CHANNELS 3 Xrotation Yrotation Zrotation
						JOINT Model_RightForeArm
						{
							OFFSET -28.283798 0.000000 -0.000001
							CHANNELS 3 Xrotation Yrotation Zrotation
							JOINT Model_RightHand
							{
								OFFSET -26.204193 0.000000 -0.000001
								CHANNELS 3 Xrotation Yrotation Zrotation
								End Site
								{
									OFFSET -26.204208 0.000000 -0.000001
								}
							}
						}
					}
				}
			}
		}
	}
	JOINT Model_LeftUpLeg
	{
		OFFSET 8.327700 -6.193199 -0.402800
		CHANNELS 3 Xrotation Yrotation Zrotation
		JOINT Model_LeftLeg
		{
			OFFSET 0.735802 -42.108742 -0.610721
			CHANNELS 3 Xrotation Yrotation Zrotation
			JOINT Model_LeftFoot
			{
				OFFSET -0.735806 -36.833748 -0.172876
				CHANNELS 3 Xrotation Yrotation Zrotation
				JOINT Model_LeftToeBase
				{
					OFFSET -0.565857 -11.977769 16.297714
					CHANNELS 3 Xrotation Yrotation Zrotation
					JOINT Model_LeftToe_End
					{
						OFFSET -0.111712 -0.312793 7.857784
						CHANNELS 3 Xrotation Yrotation Zrotation
						End Site
						{
							OFFSET -0.111712 -0.312793 7.857784
						}
					}
				}
			}
		}
	}
	JOINT Model_RightUpLeg
	{
		OFFSET -8.327700 -6.193199 -0.516500
		CHANNELS 3 Xrotation Yrotation Zrotation
		JOINT Model_RightLeg
		{
			OFFSET -0.735785 -42.108738 -0.434061
			CHANNELS 3 Xrotation Yrotation Zrotation
			JOINT Model_RightFoot
			{
				OFFSET 0.735776 -36.833748 -0.021630
				CHANNELS 3 Xrotation Yrotation Zrotation
				JOINT Model_RightToeBase
				{
					OFFSET 0.565817 -11.977745 15.903093
					CHANNELS 3 Xrotation Yrotation Zrotation
					JOINT Model_RightToe_End
					{
						OFFSET 0.111702 -0.312791 7.811342
						CHANNELS 3 Xrotation Yrotation Zrotation
						End Site
						{
							OFFSET 0.111702 -0.312791 7.811342
						}
					}
				}
			}
		}
	}
}
MOTION
Frames: 11
Frame Time: 0.016667
-20.199541 82.503204 242.277939 7.795424 -28.528155 18.245658 3.790065 -3.675321 -0.098223 2.761340 -2.415525 0.017715 2.765243 -2.398981 0.002138 -2.744749 0.046281 -5.369434 -2.765212 -0.036288 -5.345356 0.000001 0.000002 -0.000000 0.140497 -8.171456 -20.030295 25.307413 -31.729022 -36.862439 -0.000022 -20.979805 0.000000 0.000000 -0.000000 -0.000001 0.800711 16.311996 8.000311 13.047886 6.673939 62.554916 0.000011 52.846581 0.000002 -0.000001 -0.000001 0.000000 -10.740745 17.984320 9.707639 110.726362 9.643154 1.149716 18.384294 15.829862 12.289121 -13.593290 -0.000004 0.000002 0.000001 0.000005 0.000000 -10.188767 -11.328630 22.560994 15.543525 -7.513872 -0.354247 -15.345384 7.378997 -32.540445 -7.263462 0.000022 -0.000003 0.000001 0.000001 0.000000 
-22.404446 82.038177 249.427185 10.176884 -31.064363 18.211178 3.189481 -1.261119 0.418416 2.580326 -1.319295 0.185645 2.574361 -1.324832 0.193158 -3.697155 -0.175401 -5.347660 -3.711394 -0.263289 -5.325335 0.000001 -0.000003 0.000000 0.234828 -6.864723 -20.516275 26.248712 -31.095918 -40.924175 -0.000005 -13.324809 -0.000003 0.000000 -0.000001 0.000001 0.713958 15.508793 8.932116 6.942064 14.933474 62.849973 -0.000000 52.162267 -0.000025 0.000001 -0.000001 -0.000001 -24.415756 14.219992 14.775729 119.966549 9.698026 0.907825 17.415352 12.249597 19.204957 -18.242412 0.000007 0.000005 -0.000002 -0.000001 0.000001 -8.214731 -9.304312 22.624349 21.261660 -9.629800 -0.359860 -23.938070 10.292318 -30.387925 -8.243762 0.000033 -0.000013 -0.000001 -0.000004 -0.000000 
-24.592278 81.982437 256.371552 12.836364 -33.692920 19.281979 2.967406 1.428088 0.294472 2.615556 0.033712 0.070422 2.611916 0.014340 0.109172 -4.849009 -0.490374 -5.421139 -4.853849 -0.595408 -5.410848 -0.000000 0.000001 -0.000000 0.364662 -5.885891 -19.672109 32.141347 -28.852201 -41.509880 -0.000005 -19.324743 0.000013 0.000002 -0.000000 0.000001 0.747418 15.603709 8.488475 -0.862911 20.861899 64.474506 0.000024 53.449526 -0.000002 0.000000 0.000002 0.000000 -37.451409 8.485556 17.551329 124.187155 9.268702 0.469631 16.480946 5.832276 23.756726 -23.661058 -0.000001 -0.000004 0.000001 -0.000002 0.000001 -5.445534 -7.760716 20.625247 24.743998 -10.528719 -0.174043 -30.967579 13.437459 -26.803947 -8.455247 -0.000006 0.000006 0.000000 0.000003 0.000001 
-26.722672 82.121483 263.646240 14.290632 -35.554516 20.576290 3.400408 3.858841 -0.119697 2.925302 1.251447 -0.176662 2.929774 1.232446 -0.096766 -5.922011 -0.874366 -5.748617 -5.917043 -1.001430 -5.753706 0.000000 0.000001 -0.000001 0.437611 -5.691489 -18.013598 40.221587 -26.702345 -40.538098 0.000010 -31.633369 0.000010 0.000001 -0.000000 0.000000 0.934293 16.519192 6.586520 -9.077745 22.719076 66.438213 0.000010 58.281458 -0.000001 0.000000 -0.000001 -0.000000 -47.650224 2.282738 17.497352 123.573394 8.952953 0.181959 14.898225 0.857356 24.139789 -27.537670 -0.000005 0.000008 0.000000 0.000002 0.000000 1.343294 -7.915166 17.646379 21.866895 -8.551494 0.163007 -34.536367 16.156034 -26.737634 -9.732477 0.000021 0.000001 0.000001 -0.000000 0.000000 
-29.018225 82.387512 271.618073 14.093619 -36.113754 21.666111 4.107966 5.788261 -0.783298 3.222143 2.089971 -0.407247 3.227528 2.085220 -0.286850 -6.659667 -1.296529 -6.415127 -6.647218 -1.439861 -6.426124 -0.000000 -0.000001 -0.000000 0.442208 -6.551630 -16.097713 47.561575 -25.250511 -39.906084 -0.000008 -42.706615 -0.000004 -0.000002 0.000001 -0.000000 1.334819 17.357797 3.397426 -15.626638 21.519930 67.847124 0.000006 66.004899 0.000003 -0.000001 -0.000001 0.000000 -54.813914 -2.261334 14.849857 118.730749 8.583653 0.187302 12.459729 0.543526 22.522397 -31.322384 -0.000002 0.000020 -0.000000 -0.000001 -0.000000 7.833153 -11.065310 12.650809 20.761227 -3.391665 0.708938 -34.647535 15.110371 -23.266980 -14.297210 -0.000008 -0.000001 -0.000000 0.000001 0.000000 
-31.535429 82.591217 279.842407 13.362020 -35.667610 24.087159 4.983007 7.435359 -3.198287 3.439800 2.617347 -0.742141 3.443101 2.631143 -0.584305 -7.142875 -1.761149 -7.272378 -7.124396 -1.925098 -7.279076 0.000001 -0.000001 0.000000 0.438110 -8.183651 -14.161310 53.346007 -23.059364 -39.546129 0.000003 -52.347417 0.000002 -0.000001 0.000001 0.000000 1.838395 17.291799 -0.412664 -20.018866 19.300400 68.347709 0.000027 75.490891 -0.000021 0.000001 0.000001 0.000000 -60.598477 -3.525039 9.754467 110.704403 8.531640 0.386281 9.155775 3.621299 22.505149 -35.027454 -0.000010 0.000029 -0.000001 0.000001 -0.000004 12.651177 -15.638652 6.249201 21.156412 -0.508462 1.143652 -33.088715 14.401905 -20.512943 -22.314431 0.000001 -0.000006 0.000000 -0.000000 0.000000 
-34.191460 82.952263 287.732910 13.253258 -34.722943 27.605673 5.833844 8.866026 -6.736643 3.615996 3.014915 -1.192054 3.617611 3.053479 -0.993067 -7.493287 -2.238610 -8.164818 -7.468525 -2.428984 -8.163247 0.000000 0.000001 -0.000000 0.488598 -9.687204 -12.202948 56.280865 -20.541096 -39.721146 -0.000010 -59.207351 0.000004 0.000000 0.000000 -0.000000 2.246769 16.248247 -4.029634 -22.544206 17.068909 68.007722 -0.000181 85.118070 0.000210 -0.000000 0.000000 -0.000000 -65.403952 -2.736105 3.913708 99.375475 9.056675 0.573523 5.839484 6.504864 25.627659 -36.417428 -0.000018 0.000002 0.000001 0.000002 0.000000 12.410484 -19.554953 -1.205304 26.821806 0.061054 1.366281 -27.528195 12.997042 -18.479350 -34.822531 0.000018 0.000004 0.000001 -0.000004 -0.000000 
-36.999142 83.651199 295.376831 14.147094 -33.858901 30.741828 6.150381 10.091376 -9.588529 3.591532 3.427724 -1.623700 3.582999 3.499121 -1.393778 -7.645466 -2.676382 -8.924402 -7.613297 -2.881727 -8.919576 0.000000 0.000001 0.000000 0.593521 -9.966440 -10.324329 56.260104 -18.609899 -40.471459 -0.000007 -62.799881 -0.000006 0.000001 -0.000000 -0.000000 2.469229 14.950266 -6.788743 -22.961646 14.862068 67.255438 0.000177 93.867590 -0.000229 -0.000000 -0.000000 -0.000001 -67.918957 -1.895852 -0.210402 84.495567 9.787513 0.553071 3.766214 6.071306 29.520078 -37.027087 0.000019 -0.000003 -0.000001 0.000001 0.000000 11.057105 -21.087574 -6.905034 30.392224 -1.018794 1.368072 -11.221430 11.497774 -20.950147 -47.672046 0.000006 -0.000002 -0.000001 0.000006 0.000001 
-40.159870 84.673706 303.173157 15.623834 -33.643446 32.115273 5.563202 11.158643 -10.421311 3.198744 3.783980 -1.905476 3.168060 3.877131 -1.679945 -7.474592 -2.986722 -9.335651 -7.437769 -3.175183 -9.336712 -0.000000 0.000001 -0.000000 0.670745 -8.396212 -8.924460 53.987366 -18.068169 -41.727323 0.000026 -62.842890 0.000025 0.000000 -0.000000 -0.000000 2.282945 14.435028 -7.134079 -20.243291 13.479644 65.479200 0.000079 100.614738 -0.000080 0.000001 -0.000000 -0.000000 -66.905630 -1.876832 -1.162992 66.881342 10.137468 0.286223 3.565206 1.778664 29.555864 -39.584529 0.000019 0.000022 -0.000004 0.000002 -0.000005 15.128389 -20.780106 -7.603654 19.276944 1.870465 1.414024 21.362187 4.948058 -26.299683 -66.197497 3.521125 -4.841298 0.000000 0.000003 0.000000 
-43.940926 85.954552 311.609009 16.278421 -33.996362 30.328646 4.129012 11.486554 -8.348165 2.463605 3.884432 -1.925521 2.408478 3.965780 -1.755819 -6.969426 -3.096372 -9.263966 -6.937802 -3.231521 -9.277180 -0.000000 0.000000 0.000000 0.658989 -5.453669 -8.682667 50.402585 -18.603760 -43.487845 -0.000022 -59.772570 -0.000007 -0.000001 0.000000 -0.000000 2.475842 15.144650 -7.418728 -14.221763 12.934227 64.859285 0.000047 103.781084 -0.000048 0.000001 -0.000000 -0.000001 -61.546377 -1.837960 0.931245 47.781043 9.542861 -0.077558 5.178458 -4.574440 29.037487 -41.998290 0.000006 -0.000001 -0.000000 0.000002 -0.000000 21.680426 -18.596901 -5.291295 10.888166 -1.086787 1.210434 39.487608 0.740155 -25.350373 -24.789118 1.650272 -5.360575 -0.000000 0.000001 0.000001 
-48.069687 86.789894 320.342712 15.227873 -34.821708 26.407357 3.025244 10.742145 -4.994158 1.852898 3.528891 -1.668447 1.785462 3.582339 -1.572680 -6.436587 -2.971615 -8.823195 -6.421377 -3.049519 -8.842073 -0.000000 0.000003 0.000000 0.642869 -2.866007 -10.218544 46.629384 -17.875297 -45.018736 -0.000032 -57.588515 -0.000029 0.000000 0.000000 -0.000000 2.566951 16.663186 -6.268944 -6.821362 13.501924 63.873819 0.000034 103.145378 -0.000039 -0.000000 -0.000001 0.000000 -52.992788 -0.300683 4.210611 29.238445 8.774693 -0.447548 8.879739 -9.872864 25.510890 -43.172034 0.000006 -0.000013 -0.000001 -0.000001 0.000002 20.625802 -14.691045 -3.640593 25.082449 -5.014170 0.766374 39.855940 -0.378597 -27.659411 -1.737859 -0.000010 -0.000013 0.000000 0.000001 0.000001 
